# xmcd
#
# Track frame offsets:
#	150
#	21991
#	42873
#	63254
#	82096
#	108555
#	130855
#	152717
#	173299
#
# Disc length: 2673 seconds
#
# Revision: 1
# Processed by: cddbd v1.5.1PL0 Copyright (c) Steve Scherf et al.
# Submitted via: EasyCDDAExtractor 5.0.6
#
DISCID=6b0a6f09
DTITLE=Michael Franti - Love Kamikaze
DYEAR=2005
DGENRE=Hip-Hop
TTITLE0=Love Kamikaze
TTITLE1=Love Me Unique
TTITLE2=What Happens Next
TTITLE3=Stay Human
TTITLE4=I Wish That I Could be You
TTITLE5=Every Single Soul
TTITLE6=Keepin' it Natural
TTITLE7=Come and Mess With Me
TTITLE8=A Minute's All I Need
EXTD=
EXTT0=
EXTT1=
EXTT2=
EXTT3=
EXTT4=
EXTT5=
EXTT6=
EXTT7=
EXTT8=
PLAYORDER=
